<svg width="289" height="48" viewBox="0 0 289 48" fill="none" xmlns="http://www.w3.org/2000/svg">
<g clip-path="url(#clip0_55_2)">
<path fill-rule="evenodd" clip-rule="evenodd" d="M12.4953 2.73428C12.8077 1.82218 13.6652 1.20943 14.6293 1.20943H36.5093V5.72076H17.9957C16.9462 5.72076 16.0127 6.38779 15.6727 7.38069L5.98558 35.6669H1.21704L12.4953 2.73428Z" fill="white"/>
<path fill-rule="evenodd" clip-rule="evenodd" d="M36.5073 0C37.1783 0 37.7223 0.543996 37.7223 1.21505V5.72637C37.7223 6.39743 37.1783 6.94142 36.5073 6.94142H18.4233C17.6361 6.94142 16.936 7.44169 16.681 8.18637L7.13311 36.0662C6.96485 36.5575 6.50293 36.8876 5.9836 36.8876H1.21506C0.822732 36.8876 0.454546 36.6982 0.226455 36.379C-0.00163577 36.0597 -0.0615622 35.65 0.0655489 35.2789L11.3439 2.34623C11.8245 0.942807 13.1439 0 14.6274 0H36.5073ZM16.2391 5.72637H36.5073V1.21505H14.6274C13.6633 1.21505 12.8057 1.82779 12.4934 2.73989L1.21506 35.6726H5.9836L16.2391 5.72637Z" fill="white"/>
<path fill-rule="evenodd" clip-rule="evenodd" d="M19.7729 12.8318C20.0851 11.9194 20.9428 11.3064 21.9071 11.3064H37.9665C42.6389 11.3064 45.9053 15.9291 44.345 20.3332L39.4845 34.0524C39.1655 34.9529 38.3137 35.5548 37.3584 35.5548H22.7276L24.4192 31.0435H35.7645L40.0927 18.8267C40.6128 17.3587 39.524 15.8178 37.9665 15.8178H23.5193L12.9244 46.7795H8.15625L19.7729 12.8318Z" fill="white"/>
<path fill-rule="evenodd" clip-rule="evenodd" d="M21.7302 36.2523C21.5032 35.9248 21.4513 35.5068 21.5912 35.1336L23.2828 30.6223C23.4607 30.1481 23.914 29.8339 24.4205 29.8339H34.9072L38.9487 18.4264C39.1887 17.7491 38.6863 17.0382 37.9678 17.0382H24.389L14.0753 47.1783C13.9071 47.6698 13.4451 48 12.9257 48H8.15756C7.76529 48 7.39715 47.8106 7.16905 47.4915C6.94095 47.1723 6.88095 46.7627 7.00796 46.3916L18.6246 12.4438C19.105 11.04 20.4246 10.0968 21.9084 10.0968H37.9678C43.4791 10.0968 47.3321 15.5496 45.4916 20.7444L40.6311 34.4636C40.1402 35.8492 38.8297 36.7753 37.3597 36.7753H22.7289C22.3304 36.7753 21.9572 36.5799 21.7302 36.2523ZM23.5206 15.8232H37.9678C39.5253 15.8232 40.6141 17.3641 40.094 18.8321L35.7658 31.0489H24.4205L22.7289 35.5602H37.3597C38.315 35.5602 39.1668 34.9584 39.4858 34.0578L44.3463 20.3387C45.9067 15.9346 42.6402 11.3119 37.9678 11.3119H21.9084C20.9441 11.3119 20.0864 11.9249 19.7742 12.8372L8.15756 46.785H12.9257L23.5206 15.8232Z" fill="white"/>
<path d="M278.167 47.7018L282.579 26.8323H288.244L283.831 47.7018H278.167Z" fill="white"/>
<path d="M253.698 47.7018L254.265 45.0186L266.011 26.8323H273.465L277.519 45.0186L276.953 47.7018H271.735L271.139 44.1242H261.599L259.512 47.7018H253.698ZM264.371 39.5031H270.334L269.082 32.0497H268.784L264.371 39.5031Z" fill="white"/>
<path d="M247.926 47.7017L248.969 42.7824H254.336L253.292 47.7017H247.926Z" fill="white"/>
<path d="M225.116 47.7018L229.529 26.8323H235.193L233.553 34.5838H237.876L244.733 26.8323H250.249L249.653 29.6646L243.094 36.6708L246.88 44.8695L246.284 47.7018H241.514L237.966 39.8012H232.45L230.781 47.7018H225.116Z" fill="white"/>
<path d="M202.015 42.7826L204.43 31.3044C204.768 29.6547 205.394 28.4522 206.308 27.6969C207.222 26.9218 208.524 26.5342 210.214 26.5342H221.394C222.885 26.5342 224.017 27.0311 224.793 28.0249C225.588 29.0186 225.826 30.2609 225.508 31.7516L223.093 43.2298C222.755 44.8994 222.129 46.1118 221.215 46.8671C220.321 47.6223 219.019 48 217.309 48H206.129C204.639 48 203.496 47.5031 202.701 46.5093C201.926 45.5155 201.697 44.2733 202.015 42.7826ZM209.14 42.9317H215.849C216.485 42.9317 216.932 42.8323 217.19 42.6335C217.449 42.4348 217.637 42.087 217.757 41.5901L219.575 33.0037C219.675 32.5267 219.605 32.1789 219.367 31.9603C219.128 31.7218 218.8 31.6025 218.383 31.6025H211.675C211.039 31.6025 210.591 31.7019 210.333 31.9006C210.075 32.0994 209.886 32.4472 209.767 32.9441L207.948 41.5304C207.849 42.0075 207.918 42.3652 208.157 42.6037C208.395 42.8224 208.723 42.9317 209.14 42.9317Z" fill="white"/>
<path d="M178.169 42.7826L180.584 31.3044C180.922 29.6547 181.548 28.4522 182.462 27.6969C183.376 26.9218 184.678 26.5342 186.368 26.5342H197.548C199.038 26.5342 200.171 27.0311 200.947 28.0249C201.742 29.0186 201.98 30.2609 201.662 31.7516L199.247 43.2298C198.909 44.8994 198.283 46.1118 197.369 46.8671C196.474 47.6223 195.173 48 193.463 48H182.283C180.793 48 179.65 47.5031 178.855 46.5093C178.079 45.5155 177.851 44.2733 178.169 42.7826ZM185.294 42.9317H192.002C192.638 42.9317 193.086 42.8323 193.344 42.6335C193.602 42.4348 193.791 42.087 193.911 41.5901L195.729 33.0037C195.829 32.5267 195.759 32.1789 195.52 31.9603C195.282 31.7218 194.954 31.6025 194.537 31.6025H187.829C187.193 31.6025 186.745 31.7019 186.487 31.9006C186.229 32.0994 186.04 32.4472 185.92 32.9441L184.102 41.5304C184.002 42.0075 184.072 42.3652 184.311 42.6037C184.549 42.8224 184.877 42.9317 185.294 42.9317Z" fill="white"/>
<path d="M154.31 47.7018L158.722 26.8323H173.48C174.971 26.8323 176.104 27.3292 176.879 28.323C177.674 29.3167 177.912 30.559 177.594 32.0497L177.475 32.6459C177.097 34.3155 176.372 35.518 175.299 36.2534C174.802 36.5714 174.285 36.7602 173.748 36.8198L173.689 37.118C174.305 37.2969 174.812 37.5751 175.209 37.9528C176.143 38.8472 176.461 40.0596 176.163 41.59L175.895 42.9316C175.557 44.6012 174.931 45.8136 174.017 46.5689C173.122 47.3242 171.82 47.7018 170.111 47.7018H154.31ZM160.899 43.2298H168.531C169.167 43.2298 169.614 43.1304 169.873 42.9316C170.131 42.7329 170.32 42.385 170.439 41.8882L170.677 40.7552C170.777 40.2782 170.707 39.9304 170.469 39.7118C170.23 39.4732 169.902 39.354 169.485 39.354H161.733L160.899 43.2298ZM162.687 34.882H169.694C170.33 34.882 170.777 34.7826 171.035 34.5838C171.294 34.3851 171.482 34.0372 171.602 33.5403L171.781 32.7056C171.88 32.2285 171.81 31.8807 171.572 31.6621C171.333 31.4236 171.005 31.3043 170.588 31.3043H163.433L162.687 34.882Z" fill="white"/>
<path d="M138.961 47.7018L140.273 41.4409L134.877 29.6646L135.473 26.8323H140.124L143.702 35.3292H144L151.155 26.8323H156.939L156.343 29.6646L145.938 41.4409L144.626 47.7018H138.961Z" fill="white"/>
<path d="M110.766 47.7018L111.333 45.0186L123.079 26.8323H130.533L134.587 45.0186L134.021 47.7018H128.803L128.207 44.1242H118.667L116.58 47.7018H110.766ZM121.44 39.5031H127.402L126.15 32.0497H125.852L121.44 39.5031Z" fill="white"/>
<path d="M92.8986 47.7018L97.311 26.8323H102.976L99.6364 42.6335H112.158L111.085 47.7018H92.8986Z" fill="white"/>
<path d="M69.9565 47.7018L74.369 26.8323H89.4248C90.9155 26.8323 92.0484 27.3292 92.8236 28.323C93.6186 29.3167 93.8571 30.559 93.5391 32.0497L92.5255 36.9689C92.1876 38.6385 91.5615 39.8509 90.6472 40.6062C89.7528 41.3614 88.4509 41.7391 86.7416 41.7391H76.8733L75.6211 47.7018H69.9565ZM77.9466 36.6708H85.2807C85.9168 36.6708 86.364 36.5714 86.6224 36.3726C86.8807 36.1739 87.0696 35.826 87.1888 35.3292L87.6062 33.3018C87.7056 32.8248 87.636 32.477 87.3975 32.2584C87.159 32.0198 86.8311 31.9006 86.4137 31.9006H78.9603L77.9466 36.6708Z" fill="white"/>
<path d="M202.929 20.8695L204.241 14.6087L198.844 2.83229L199.441 0H204.092L207.669 8.49688H207.967L215.123 0H220.906L220.31 2.83229L209.905 14.6087L208.593 20.8695H202.929Z" fill="white"/>
<path d="M175.345 20.8695L176.418 15.8012H189.626C190.083 15.8012 190.391 15.7416 190.55 15.6223C190.729 15.5031 190.848 15.2944 190.908 14.9963L190.967 14.6981C191.087 14.082 190.808 13.7043 190.133 13.5652L182.798 12.3727C179.201 11.7963 177.71 9.95775 178.326 6.85713L178.744 4.77018C179.082 3.12049 179.708 1.91801 180.622 1.16273C181.536 0.387577 182.838 0 184.528 0H199.136L198.451 3.2795L196.274 5.06832H185.452C184.995 5.06832 184.677 5.12794 184.498 5.2472C184.339 5.36645 184.229 5.57515 184.17 5.87328L184.11 6.17142C183.991 6.78757 184.269 7.16521 184.945 7.30434L192.279 8.49688C194.147 8.79502 195.429 9.4211 196.125 10.3751C196.841 11.3093 197.039 12.5714 196.721 14.1615L196.334 16.0994C195.996 17.7689 195.37 18.9813 194.455 19.7366C193.561 20.4919 192.259 20.8695 190.55 20.8695H175.345Z" fill="white"/>
<path d="M151.469 20.8695L152.035 18.1863L163.782 0H171.235L175.29 18.1863L174.723 20.8695H169.506L168.91 17.2919H159.369L157.283 20.8695H151.469ZM162.142 12.6708H168.105L166.853 5.21738H166.555L162.142 12.6708Z" fill="white"/>
<path d="M140.759 20.8695L144.098 5.06832H136.496L137.569 0H158.438L157.753 3.2795L155.576 5.06832H149.763L146.424 20.8695H140.759Z" fill="white"/>
<path d="M110.339 20.8695L114.752 0H120.864L127.78 13.118H128.078L128.526 8.94409L130.404 0H136.069L131.656 20.8695H125.544L118.628 7.75154H118.329L117.882 11.9254L116.004 20.8695H110.339Z" fill="white"/>
<path d="M85.8723 20.8695L86.4388 18.1863L98.1853 0H105.639L109.693 18.1863L109.127 20.8695H103.91L103.313 17.2919H93.7729L91.686 20.8695H85.8723ZM96.5456 12.6708H102.508L101.256 5.21738H100.958L96.5456 12.6708Z" fill="white"/>
<path d="M69.9565 20.8695L74.369 0H92.5553L91.8696 3.2795L89.6932 5.06832H78.9603L78.1553 8.94409H87.2484L86.1453 14.0124H77.0522L75.6211 20.8695H69.9565Z" fill="white"/>
</g>
<defs>
<clipPath id="clip0_55_2">
<rect width="288.244" height="48" fill="white"/>
</clipPath>
</defs>
</svg>
